PathFileType	4	(X/Y/Z)	46_1_5_p0_0-289.trc
DataRate	CameraRate	NumFrames	NumMarkers	Units	OrigDataRate	OrigDataStartFrame	OrigNumFrames
49.0	49.0	4	27	m	49.0	0	290
Frame#	Time	RHip			RKnee			RAnkle			RBigToe			RSmallToe			RHeel			LHip			LKnee			LAnkle			LBigToe			LSmallToe			LHeel			Neck			Head			Nose			RShoulder			RElbow			RWrist			RThumb			RIndex			RPinky			LShoulder			LElbow			LWrist			LThumb			LIndex			LPinky			
		X1	Y1	Z1	X2	Y2	Z2	X3	Y3	Z3	X4	Y4	Z4	X5	Y5	Z5	X6	Y6	Z6	X7	Y7	Z7	X8	Y8	Z8	X9	Y9	Z9	X10	Y10	Z10	X11	Y11	Z11	X12	Y12	Z12	X13	Y13	Z13	X14	Y14	Z14	X15	Y15	Z15	X16	Y16	Z16	X17	Y17	Z17	X18	Y18	Z18	X19	Y19	Z19	X20	Y20	Z20	X21	Y21	Z21	X22	Y22	Z22	X23	Y23	Z23	X24	Y24	Z24	X25	Y25	Z25	X26	Y26	Z26	X27	Y27	Z27	
0	0.0	0.39579993114809026	0.3189718865141887	0.6387209395990789	0.35109376336232245	0.3952091984121908	1.066938738320653	0.34565400250625156	0.45025683442805586	1.463018316730359	0.3489431464092469	0.3117479281127945	1.5020185216571038	0.4159026717808627	0.3451197636310891	1.50888868005826	0.31312569953243763	0.5446159097840233	1.5678123294491004	0.20052731770502227	0.3441640493984806	0.6480399397749698	0.20228423586780056	0.3771941280815689	1.0466247634492687	0.1522800984804367	0.47825974273213595	1.4801516418852396	0.17610107495578053	0.3082356512017699	1.5049478171492732	0.11308537882264305	0.352037644410323	1.5160843116499443	0.15720581597109767	0.5216565998131368	1.5444561218828057	0.3132014432827382	0.2885172845629804	0.08931992595189357	0.34525180353735313	0.23910403138440908	-0.1438231385746303	0.3397314494592612	0.17202841244017014	-0.019921484252719838	0.46946412623348593	0.2932373323387091	0.21290867464708899	0.48874024975629293	0.2834014280554549	0.4656007979355969	0.36285862562440535	0.17468146880619656	0.6275412086946914	0.29205936262939963	0.1616183187107231	0.7096799148728576	0.2800322196536002	0.18787967004622183	0.7204312172201023	0.2922066881611569	0.20597695315596187	0.724986050388083	0.16190200978807545	0.27195825573950233	0.1732016760583146	0.12909909586173457	0.2796448589136713	0.4350040027394755	0.25316636315027574	0.14866394915707495	0.6103655456308081	0.34420541567137053	0.16510032481165027	0.6607805004338869	0.35078247005287	0.16361184070572476	0.7099501708447632	0.2937808184568506	0.14169850335299966	0.7218944907878552
1	0.02040816326530612	0.39313166531933175	0.30681244116716666	0.6272430536601693	0.35097368092617437	0.39519682209997	1.0669956360370259	0.34408986980249306	0.4525755336329178	1.4636595832737158	0.35199575744008116	0.28443590386125417	1.4862516754810897	0.4149551755276172	0.34576304442595096	1.5053204094294237	0.3122484751093173	0.5465474044755982	1.5642588831004476	0.20457298092597861	0.34604861510031126	0.6437176556307033	0.2035027952623585	0.36719952524373806	1.0426681061105845	0.15290687820012927	0.4804430132370039	1.4860185603256955	0.1733571024573083	0.29352161053717124	1.495535316747197	0.11243630276253999	0.3540396675485542	1.5127604069678364	0.15797210987486004	0.5240538718083392	1.5497882940762613	0.31509507726365593	0.3001776317621876	0.09013277244652954	0.3451999451294482	0.23906938068541975	-0.14385858067160207	0.3395796564417492	0.17120948015088347	-0.023140805458706958	0.4695843475552613	0.29362781733451104	0.20917041191370933	0.4884647161509579	0.2845091643681894	0.4587017905568366	0.362244925940358	0.1751556068027885	0.6307438247345228	0.30160815349363956	0.1424038844369569	0.7019416180135342	0.2828918597604337	0.1886469638596326	0.7237128218466979	0.2917973161105358	0.2058283086142174	0.7245599158547402	0.16225677486548565	0.2719095669364926	0.17037650209219168	0.12912879641097114	0.2807369580300539	0.4278638828901936	0.24402407668357642	0.15798105856060482	0.6134070554369058	0.3442830913638208	0.16708403437471117	0.6609179182079248	0.34842506482040814	0.1531952355813201	0.7067687404186929	0.28814185622927424	0.1533298884473907	0.7262041075735228
2	0.04081632653061224	0.39885633572443174	0.3211636236996186	0.6313949887761053	0.3505560074418798	0.39652993705930756	1.0635671850400874	0.34408000636481645	0.4526957969454925	1.4637393154595737	0.35184155500849734	0.2838509791071758	1.4862382083734451	0.4152958862422179	0.34393280309808627	1.5087282269603584	0.3148462121137618	0.5608980604225319	1.5716826207119963	0.20402436991106065	0.3463225410246665	0.6481722881689511	0.2034168273311443	0.3672961007302588	1.042893429377206	0.1517680874388965	0.48072026033304166	1.4908922962535225	0.17347811052447462	0.293267793885387	1.4953742700736743	0.11245095862578604	0.3538385017082086	1.5125778652375665	0.16208965750831125	0.5288237779942165	1.5523763280749114	0.3150994506174696	0.3001704502807749	0.09012114976100431	0.3452414537244294	0.23895106566697674	-0.14383805763765928	0.33969881817436737	0.17201650147176462	-0.01991033574585927	0.465667142928437	0.29259591811912533	0.20587580371503383	0.48801449066560104	0.28442354054834934	0.4624032990214898	0.3621938748966885	0.17551277347430314	0.6310124196572178	0.29270040372026296	0.1542731130759672	0.6997045110022535	0.27808151465267045	0.20002120861227804	0.7239801131191282	0.28641293067270235	0.21734389090154152	0.7280986271253614	0.1622878471485361	0.27185191493163385	0.17031611293762772	0.12903707795462802	0.2808080341687895	0.4279084907624237	0.24288444952732013	0.1588968781154344	0.6140323878118635	0.3433228397382502	0.16596804403440543	0.6575476902643731	0.344818359449355	0.1515017765324722	0.7026096526737448	0.2879286687794851	0.1533216293322122	0.7261058925695764
3	0.061224489795918366	0.39191702527499445	0.30709905637172297	0.6322833033856113	0.35055068458674044	0.3964280649841083	1.0635224709469482	0.3440193648496399	0.4528984311248284	1.4638779008644476	0.35201608058668526	0.2845509419878374	1.4863722890219426	0.4154834698081366	0.3444060099840815	1.508826642899011	0.31478338491670393	0.5611370702147278	1.572085937122449	0.20342278444741632	0.3458041647212305	0.6521510585968878	0.20348333532659607	0.3671632408750829	1.0426750351681606	0.15174104789951592	0.4808754665754049	1.4910828499165087	0.17485507432868497	0.30860139956334703	1.508613810797615	0.11244478244357006	0.3540190931637304	1.512789394884638	0.16386284423632788	0.5421658069554378	1.5596257819663388	0.3151125943405592	0.30016142454041095	0.09009156921400553	0.3452885273703252	0.2391245396920084	-0.14385100538879966	0.33959567133328566	0.17112469856328605	-0.02317421265814818	0.469442971289967	0.29342830721211755	0.21282873928933546	0.4883279219621571	0.28558961899247715	0.4666024482302555	0.3580426017723173	0.1747812736907189	0.6313153900533738	0.2924552701359976	0.15343778210325157	0.7062588592715572	0.27773632498363326	0.19975529622210564	0.7278092466614697	0.28675052574158644	0.21729764733888152	0.7283232455253155	0.16229161682672888	0.27185595720971767	0.17033878285116438	0.12487235672764375	0.2785572056518944	0.42770010015070503	0.2398328206276099	0.15851616456695705	0.6183184227806923	0.3378483513713933	0.15416976698936244	0.6577423413698285	0.34395918494799205	0.1508547530333047	0.7062229272197162	0.2878427719702377	0.15381947024714368	0.7264298088196761
